<?xml version="1.0" encoding="UTF-8"?>
<!DOCTYPE svg PUBLIC "-//W3C//DTD SVG 1.1//EN" "http://www.w3.org/Graphics/SVG/1.1/DTD/svg11.dtd">
<svg xmlns="http://www.w3.org/2000/svg" version="1.1" width="512px" height="512px" style="shape-rendering:geometricPrecision; text-rendering:geometricPrecision; image-rendering:optimizeQuality; fill-rule:evenodd; clip-rule:evenodd" xmlns:xlink="http://www.w3.org/1999/xlink">
<g><path style="opacity:0.991" fill="#a5d138" d="M 161.5,109.5 C 144.77,122.545 127.436,134.879 109.5,146.5C 109.631,145.761 109.464,145.094 109,144.5C 97.8811,132.876 86.3811,121.876 74.5,111.5C 75.0967,111.265 75.4301,110.765 75.5,110C 74.0779,104.478 72.5779,98.978 71,93.5C 65.8188,77.2913 60.6521,61.1247 55.5,45C 56.2192,35.113 61.5525,29.613 71.5,28.5C 74.638,28.8676 77.638,29.7009 80.5,31C 112.606,51.9405 139.606,78.1071 161.5,109.5 Z"/></g>
<g><path style="opacity:0.988" fill="#93c514" d="M 74.5,111.5 C 86.3811,121.876 97.8811,132.876 109,144.5C 109.464,145.094 109.631,145.761 109.5,146.5C 96.0145,156.47 82.3479,166.304 68.5,176C 65.9614,178.37 63.6281,180.87 61.5,183.5C 59.8712,184.625 58.3712,185.959 57,187.5C 54.637,191.345 52.137,195.011 49.5,198.5C 44.4455,168.949 36.2788,140.282 25,112.5C 22.5637,99.7742 27.7303,92.4409 40.5,90.5C 44.0537,91.0546 47.387,92.2212 50.5,94C 58.7067,99.5981 66.7067,105.431 74.5,111.5 Z"/></g>
<g><path style="opacity:0.994" fill="#372e3d" d="M 255.5,101.5 C 240.026,126.909 228.026,153.909 219.5,182.5C 218.833,182.5 218.5,182.833 218.5,183.5C 166.167,183.5 113.833,183.5 61.5,183.5C 63.6281,180.87 65.9614,178.37 68.5,176C 82.3479,166.304 96.0145,156.47 109.5,146.5C 127.436,134.879 144.77,122.545 161.5,109.5C 170.461,105.681 179.794,103.181 189.5,102C 211.497,101.5 233.497,101.333 255.5,101.5 Z"/></g>
<g><path style="opacity:0.99" fill="#463c4c" d="M 255.5,101.5 C 279.502,101.333 303.502,101.5 327.5,102C 339.691,102.784 350.691,106.617 360.5,113.5C 333.272,136.792 305.606,159.626 277.5,182C 258.17,182.5 238.836,182.667 219.5,182.5C 228.026,153.909 240.026,126.909 255.5,101.5 Z"/></g>
<g><path style="opacity:0.997" fill="#584b5d" d="M 360.5,113.5 C 371.697,119.848 380.197,128.848 386,140.5C 391.793,156.667 397.126,173.001 402,189.5C 403.588,193.672 405.421,197.672 407.5,201.5C 370.886,215.467 334.22,229.467 297.5,243.5C 290.705,223.782 283.705,204.115 276.5,184.5C 257.178,183.5 237.845,183.167 218.5,183.5C 218.5,182.833 218.833,182.5 219.5,182.5C 238.836,182.667 258.17,182.5 277.5,182C 305.606,159.626 333.272,136.792 360.5,113.5 Z"/></g>
<g><path style="opacity:0.997" fill="#584b5d" d="M 61.5,183.5 C 113.833,183.5 166.167,183.5 218.5,183.5C 200.591,239.767 193.091,297.434 196,356.5C 203.033,348.636 210.2,340.969 217.5,333.5C 228.47,354.103 239.97,374.436 252,394.5C 265.11,408.235 280.277,411.068 297.5,403C 314.528,391.823 331.528,380.656 348.5,369.5C 362.36,406.412 376.027,443.412 389.5,480.5C 385.51,480.999 381.51,481.499 377.5,482C 324.501,482.5 271.501,482.667 218.5,482.5C 204.644,442.039 196.811,400.372 195,357.5C 191.333,361.833 187.667,366.167 184,370.5C 181.894,373.118 179.394,375.118 176.5,376.5C 117.381,352.44 58.3814,328.107 -0.5,303.5C -0.5,301.167 -0.5,298.833 -0.5,296.5C 1.69436,287.441 5.19436,278.774 10,270.5C 23.3957,246.61 36.5624,222.61 49.5,198.5C 52.137,195.011 54.637,191.345 57,187.5C 58.3712,185.959 59.8712,184.625 61.5,183.5 Z"/></g>
<g><path style="opacity:1" fill="#68566d" d="M 218.5,183.5 C 237.845,183.167 257.178,183.5 276.5,184.5C 283.705,204.115 290.705,223.782 297.5,243.5C 270.491,273.177 243.824,303.177 217.5,333.5C 210.2,340.969 203.033,348.636 196,356.5C 193.091,297.434 200.591,239.767 218.5,183.5 Z"/></g>
<g><path style="opacity:0.999" fill="#463c4c" d="M 407.5,201.5 C 412.23,207.737 417.563,213.57 423.5,219C 444.631,237.129 465.464,255.629 486,274.5C 488.426,277.691 490.593,281.025 492.5,284.5C 444.633,312.596 396.966,340.93 349.5,369.5C 349.167,369.5 348.833,369.5 348.5,369.5C 331.528,380.656 314.528,391.823 297.5,403C 280.277,411.068 265.11,408.235 252,394.5C 239.97,374.436 228.47,354.103 217.5,333.5C 243.824,303.177 270.491,273.177 297.5,243.5C 334.22,229.467 370.886,215.467 407.5,201.5 Z"/></g>
<g><path style="opacity:0.997" fill="#584b5d" d="M 492.5,284.5 C 496.6,291.626 499.433,299.292 501,307.5C 504.206,325.694 507.706,343.694 511.5,361.5C 511.5,369.5 511.5,377.5 511.5,385.5C 509.869,393.676 506.869,401.343 502.5,408.5C 502.38,407.414 501.713,406.747 500.5,406.5C 450.093,394.315 399.76,381.981 349.5,369.5C 396.966,340.93 444.633,312.596 492.5,284.5 Z"/></g>
<g><path style="opacity:0.996" fill="#372e3d" d="M -0.5,303.5 C 58.3814,328.107 117.381,352.44 176.5,376.5C 176.291,377.922 175.791,379.255 175,380.5C 147.159,411.532 119.326,442.532 91.5,473.5C 81.2554,467.424 72.7554,459.424 66,449.5C 47.2542,414.34 28.2542,379.34 9,344.5C 4.93574,336.728 1.76908,328.728 -0.5,320.5C -0.5,314.833 -0.5,309.167 -0.5,303.5 Z"/></g>
<g><path style="opacity:0.99" fill="#463c4c" d="M 218.5,482.5 C 185.832,482.667 153.165,482.5 120.5,482C 110.206,481.178 100.539,478.345 91.5,473.5C 119.326,442.532 147.159,411.532 175,380.5C 175.791,379.255 176.291,377.922 176.5,376.5C 179.394,375.118 181.894,373.118 184,370.5C 187.667,366.167 191.333,361.833 195,357.5C 196.811,400.372 204.644,442.039 218.5,482.5 Z"/></g>
<g><path style="opacity:0.996" fill="#68566d" d="M 348.5,369.5 C 348.833,369.5 349.167,369.5 349.5,369.5C 399.76,381.981 450.093,394.315 500.5,406.5C 501.713,406.747 502.38,407.414 502.5,408.5C 497.361,418.59 490.028,426.757 480.5,433C 458.006,445.08 435.673,457.413 413.5,470C 405.825,474.34 397.825,477.84 389.5,480.5C 376.027,443.412 362.36,406.412 348.5,369.5 Z"/></g>
</svg>
