<?xml version="1.0" encoding="UTF-8"?>
<!DOCTYPE svg PUBLIC "-//W3C//DTD SVG 1.1//EN" "http://www.w3.org/Graphics/SVG/1.1/DTD/svg11.dtd">
<svg xmlns="http://www.w3.org/2000/svg" version="1.1" width="512px" height="512px" style="shape-rendering:geometricPrecision; text-rendering:geometricPrecision; image-rendering:optimizeQuality; fill-rule:evenodd; clip-rule:evenodd" xmlns:xlink="http://www.w3.org/1999/xlink">
<g><path style="opacity:0.997" fill="#eeeced" d="M 62.5,-0.5 C 165.5,-0.5 268.5,-0.5 371.5,-0.5C 402.579,8.27616 417.579,28.9428 416.5,61.5C 304.167,61.5 191.833,61.5 79.5,61.5C 76.6857,55.1873 72.019,50.6873 65.5,48C 57.9048,46.6439 50.2382,46.1439 42.5,46.5C 41.9448,36.0282 42.7781,25.6949 45,15.5C 48.5029,7.49214 54.3362,2.15881 62.5,-0.5 Z"/></g>
<g><path style="opacity:1" fill="#d2d2d2" d="M 371.5,-0.5 C 389.5,-0.5 407.5,-0.5 425.5,-0.5C 455.564,8.88624 469.898,29.5529 468.5,61.5C 468.167,61.5 467.833,61.5 467.5,61.5C 450.5,61.5 433.5,61.5 416.5,61.5C 417.579,28.9428 402.579,8.27616 371.5,-0.5 Z"/></g>
<g><path style="opacity:1" fill="#fb7a7c" d="M 79.5,61.5 C 191.833,61.5 304.167,61.5 416.5,61.5C 416.5,61.8333 416.5,62.1667 416.5,62.5C 303.956,61.8386 191.622,62.5052 79.5,64.5C 79.5,63.5 79.5,62.5 79.5,61.5 Z"/></g>
<g><path style="opacity:1" fill="#e36465" d="M 416.5,61.5 C 433.5,61.5 450.5,61.5 467.5,61.5C 467.5,66.5 467.5,71.5 467.5,76.5C 450.5,76.5 433.5,76.5 416.5,76.5C 416.5,71.8333 416.5,67.1667 416.5,62.5C 416.5,62.1667 416.5,61.8333 416.5,61.5 Z"/></g>
<g><path style="opacity:1" fill="#fc6f71" d="M 416.5,62.5 C 416.5,67.1667 416.5,71.8333 416.5,76.5C 304.5,76.5 192.5,76.5 80.5,76.5C 80.5,75.5 80.5,74.5 80.5,73.5C 80.7359,70.3915 80.4025,67.3915 79.5,64.5C 191.622,62.5052 303.956,61.8386 416.5,62.5 Z"/></g>
<g><path style="opacity:1" fill="#f5a9aa" d="M 80.5,73.5 C 80.5,74.5 80.5,75.5 80.5,76.5C 192.5,76.5 304.5,76.5 416.5,76.5C 416.5,76.8333 416.5,77.1667 416.5,77.5C 304.167,77.5 191.833,77.5 79.5,77.5C 79.2322,75.901 79.5655,74.5676 80.5,73.5 Z"/></g>
<g><path style="opacity:1" fill="#e68485" d="M 467.5,61.5 C 467.833,61.5 468.167,61.5 468.5,61.5C 468.5,66.8333 468.5,72.1667 468.5,77.5C 451.167,77.5 433.833,77.5 416.5,77.5C 416.5,77.1667 416.5,76.8333 416.5,76.5C 433.5,76.5 450.5,76.5 467.5,76.5C 467.5,71.5 467.5,66.5 467.5,61.5 Z"/></g>
<g><path style="opacity:0.997" fill="#eeeced" d="M 79.5,77.5 C 191.833,77.5 304.167,77.5 416.5,77.5C 416.5,103.167 416.5,128.833 416.5,154.5C 304.167,154.5 191.833,154.5 79.5,154.5C 75.8341,146.317 69.5007,141.484 60.5,140C 54.5092,139.501 48.5092,139.334 42.5,139.5C 42.5,123.833 42.5,108.167 42.5,92.5C 49.8876,92.7466 57.221,92.2466 64.5,91C 71.249,88.3159 76.249,83.8159 79.5,77.5 Z"/></g>
<g><path style="opacity:1" fill="#d2d2d2" d="M 416.5,77.5 C 433.833,77.5 451.167,77.5 468.5,77.5C 468.5,103.167 468.5,128.833 468.5,154.5C 451.167,154.5 433.833,154.5 416.5,154.5C 416.5,128.833 416.5,103.167 416.5,77.5 Z"/></g>
<g><path style="opacity:1" fill="#f98688" d="M 79.5,154.5 C 191.833,154.5 304.167,154.5 416.5,154.5C 416.5,154.833 416.5,155.167 416.5,155.5C 303.956,154.839 191.622,155.505 79.5,157.5C 79.5,156.5 79.5,155.5 79.5,154.5 Z"/></g>
<g><path style="opacity:1" fill="#e36667" d="M 416.5,154.5 C 433.833,154.5 451.167,154.5 468.5,154.5C 468.5,159.833 468.5,165.167 468.5,170.5C 451.167,170.5 433.833,170.5 416.5,170.5C 416.5,170.167 416.5,169.833 416.5,169.5C 416.5,164.833 416.5,160.167 416.5,155.5C 416.5,155.167 416.5,154.833 416.5,154.5 Z"/></g>
<g><path style="opacity:1" fill="#fc6f71" d="M 416.5,155.5 C 416.5,160.167 416.5,164.833 416.5,169.5C 304.5,169.5 192.5,169.5 80.5,169.5C 80.5,168.5 80.5,167.5 80.5,166.5C 80.7359,163.391 80.4025,160.391 79.5,157.5C 191.622,155.505 303.956,154.839 416.5,155.5 Z"/></g>
<g><path style="opacity:1" fill="#f79d9f" d="M 80.5,166.5 C 80.5,167.5 80.5,168.5 80.5,169.5C 192.5,169.5 304.5,169.5 416.5,169.5C 416.5,169.833 416.5,170.167 416.5,170.5C 304.167,170.5 191.833,170.5 79.5,170.5C 79.2322,168.901 79.5655,167.568 80.5,166.5 Z"/></g>
<g><path style="opacity:0.997" fill="#eeeced" d="M 79.5,170.5 C 191.833,170.5 304.167,170.5 416.5,170.5C 416.5,196.167 416.5,221.833 416.5,247.5C 304.167,247.5 191.833,247.5 79.5,247.5C 75.4735,239.802 69.1402,234.969 60.5,233C 54.5092,232.501 48.5092,232.334 42.5,232.5C 42.5,216.833 42.5,201.167 42.5,185.5C 50.988,186.011 59.3214,185.178 67.5,183C 72.7478,179.982 76.7478,175.815 79.5,170.5 Z"/></g>
<g><path style="opacity:1" fill="#d2d2d2" d="M 416.5,170.5 C 433.833,170.5 451.167,170.5 468.5,170.5C 468.5,196.167 468.5,221.833 468.5,247.5C 451.167,247.5 433.833,247.5 416.5,247.5C 416.5,221.833 416.5,196.167 416.5,170.5 Z"/></g>
<g><path style="opacity:1" fill="#f89294" d="M 79.5,247.5 C 191.833,247.5 304.167,247.5 416.5,247.5C 416.5,247.833 416.5,248.167 416.5,248.5C 303.956,247.839 191.622,248.505 79.5,250.5C 79.5,249.5 79.5,248.5 79.5,247.5 Z"/></g>
<g><path style="opacity:1" fill="#fc6f71" d="M 416.5,248.5 C 416.5,253.167 416.5,257.833 416.5,262.5C 303.956,263.161 191.622,262.495 79.5,260.5C 80.8333,257.167 80.8333,253.833 79.5,250.5C 191.622,248.505 303.956,247.839 416.5,248.5 Z"/></g>
<g><path style="opacity:1" fill="#e36667" d="M 416.5,247.5 C 433.833,247.5 451.167,247.5 468.5,247.5C 468.5,252.833 468.5,258.167 468.5,263.5C 451.167,263.5 433.833,263.5 416.5,263.5C 416.5,263.167 416.5,262.833 416.5,262.5C 416.5,257.833 416.5,253.167 416.5,248.5C 416.5,248.167 416.5,247.833 416.5,247.5 Z"/></g>
<g><path style="opacity:1" fill="#f89294" d="M 79.5,260.5 C 191.622,262.495 303.956,263.161 416.5,262.5C 416.5,262.833 416.5,263.167 416.5,263.5C 304.167,263.5 191.833,263.5 79.5,263.5C 79.5,262.5 79.5,261.5 79.5,260.5 Z"/></g>
<g><path style="opacity:0.997" fill="#eeeced" d="M 79.5,263.5 C 191.833,263.5 304.167,263.5 416.5,263.5C 416.5,289.167 416.5,314.833 416.5,340.5C 304.167,340.5 191.833,340.5 79.5,340.5C 75.2719,332.456 68.6053,327.623 59.5,326C 53.8431,325.501 48.1764,325.334 42.5,325.5C 42.5,309.833 42.5,294.167 42.5,278.5C 50.9996,279.066 59.333,278.233 67.5,276C 72.7478,272.982 76.7478,268.815 79.5,263.5 Z"/></g>
<g><path style="opacity:1" fill="#d2d2d2" d="M 416.5,263.5 C 433.833,263.5 451.167,263.5 468.5,263.5C 468.5,289.167 468.5,314.833 468.5,340.5C 451.167,340.5 433.833,340.5 416.5,340.5C 416.5,314.833 416.5,289.167 416.5,263.5 Z"/></g>
<g><path style="opacity:1" fill="#f79d9f" d="M 79.5,340.5 C 191.833,340.5 304.167,340.5 416.5,340.5C 416.5,340.833 416.5,341.167 416.5,341.5C 304.5,341.5 192.5,341.5 80.5,341.5C 80.5,342.5 80.5,343.5 80.5,344.5C 79.5655,343.432 79.2322,342.099 79.5,340.5 Z"/></g>
<g><path style="opacity:1" fill="#fc6f71" d="M 416.5,341.5 C 416.5,346.167 416.5,350.833 416.5,355.5C 303.956,356.161 191.622,355.495 79.5,353.5C 80.4025,350.609 80.7359,347.609 80.5,344.5C 80.5,343.5 80.5,342.5 80.5,341.5C 192.5,341.5 304.5,341.5 416.5,341.5 Z"/></g>
<g><path style="opacity:1" fill="#e36667" d="M 416.5,340.5 C 433.833,340.5 451.167,340.5 468.5,340.5C 468.5,345.833 468.5,351.167 468.5,356.5C 451.167,356.5 433.833,356.5 416.5,356.5C 416.5,356.167 416.5,355.833 416.5,355.5C 416.5,350.833 416.5,346.167 416.5,341.5C 416.5,341.167 416.5,340.833 416.5,340.5 Z"/></g>
<g><path style="opacity:1" fill="#f98688" d="M 79.5,353.5 C 191.622,355.495 303.956,356.161 416.5,355.5C 416.5,355.833 416.5,356.167 416.5,356.5C 304.167,356.5 191.833,356.5 79.5,356.5C 79.5,355.5 79.5,354.5 79.5,353.5 Z"/></g>
<g><path style="opacity:0.997" fill="#eeeced" d="M 79.5,356.5 C 191.833,356.5 304.167,356.5 416.5,356.5C 416.5,382.167 416.5,407.833 416.5,433.5C 304.167,433.5 191.833,433.5 79.5,433.5C 70.8106,420.277 58.4773,415.277 42.5,418.5C 42.5,402.833 42.5,387.167 42.5,371.5C 51.0159,372.115 59.3492,371.282 67.5,369C 73.0794,366.256 77.0794,362.089 79.5,356.5 Z"/></g>
<g><path style="opacity:1" fill="#d2d2d2" d="M 416.5,356.5 C 433.833,356.5 451.167,356.5 468.5,356.5C 468.5,382.167 468.5,407.833 468.5,433.5C 451.167,433.5 433.833,433.5 416.5,433.5C 416.5,407.833 416.5,382.167 416.5,356.5 Z"/></g>
<g><path style="opacity:1" fill="#f5a9aa" d="M 79.5,433.5 C 191.833,433.5 304.167,433.5 416.5,433.5C 416.5,433.833 416.5,434.167 416.5,434.5C 304.5,434.5 192.5,434.5 80.5,434.5C 80.5,435.5 80.5,436.5 80.5,437.5C 79.5655,436.432 79.2322,435.099 79.5,433.5 Z"/></g>
<g><path style="opacity:1" fill="#e68485" d="M 416.5,434.5 C 416.5,434.167 416.5,433.833 416.5,433.5C 433.833,433.5 451.167,433.5 468.5,433.5C 468.5,438.833 468.5,444.167 468.5,449.5C 468.167,449.5 467.833,449.5 467.5,449.5C 467.5,444.5 467.5,439.5 467.5,434.5C 450.5,434.5 433.5,434.5 416.5,434.5 Z"/></g>
<g><path style="opacity:1" fill="#fc6f71" d="M 416.5,434.5 C 416.5,439.167 416.5,443.833 416.5,448.5C 303.956,449.161 191.622,448.495 79.5,446.5C 80.4025,443.609 80.7359,440.609 80.5,437.5C 80.5,436.5 80.5,435.5 80.5,434.5C 192.5,434.5 304.5,434.5 416.5,434.5 Z"/></g>
<g><path style="opacity:1" fill="#e36465" d="M 416.5,434.5 C 433.5,434.5 450.5,434.5 467.5,434.5C 467.5,439.5 467.5,444.5 467.5,449.5C 450.5,449.5 433.5,449.5 416.5,449.5C 416.5,449.167 416.5,448.833 416.5,448.5C 416.5,443.833 416.5,439.167 416.5,434.5 Z"/></g>
<g><path style="opacity:1" fill="#fb7a7c" d="M 79.5,446.5 C 191.622,448.495 303.956,449.161 416.5,448.5C 416.5,448.833 416.5,449.167 416.5,449.5C 304.167,449.5 191.833,449.5 79.5,449.5C 79.5,448.5 79.5,447.5 79.5,446.5 Z"/></g>
<g><path style="opacity:0.997" fill="#eeeced" d="M 79.5,449.5 C 191.833,449.5 304.167,449.5 416.5,449.5C 417.579,482.057 402.579,502.724 371.5,511.5C 268.5,511.5 165.5,511.5 62.5,511.5C 50.7579,507.388 44.2579,499.054 43,486.5C 42.5003,479.174 42.3337,471.841 42.5,464.5C 50.253,464.896 57.9196,464.396 65.5,463C 72.019,460.313 76.6857,455.813 79.5,449.5 Z"/></g>
<g><path style="opacity:1" fill="#d2d2d2" d="M 416.5,449.5 C 433.5,449.5 450.5,449.5 467.5,449.5C 467.833,449.5 468.167,449.5 468.5,449.5C 469.898,481.447 455.564,502.114 425.5,511.5C 407.5,511.5 389.5,511.5 371.5,511.5C 402.579,502.724 417.579,482.057 416.5,449.5 Z"/></g>
</svg>
