<?xml version="1.0" encoding="UTF-8"?>
<!DOCTYPE svg PUBLIC "-//W3C//DTD SVG 1.1//EN" "http://www.w3.org/Graphics/SVG/1.1/DTD/svg11.dtd">
<svg xmlns="http://www.w3.org/2000/svg" version="1.1" width="512px" height="512px" style="shape-rendering:geometricPrecision; text-rendering:geometricPrecision; image-rendering:optimizeQuality; fill-rule:evenodd; clip-rule:evenodd" xmlns:xlink="http://www.w3.org/1999/xlink">
<g><path style="opacity:1" fill="#5d6a85" d="M 361.5,102.5 C 321.413,135.312 292.08,175.979 273.5,224.5C 260.721,223.781 254.221,229.781 254,242.5C 255.245,248.572 258.745,252.572 264.5,254.5C 264.5,254.833 264.5,255.167 264.5,255.5C 260.504,279.358 259.504,303.358 261.5,327.5C 237.565,332.712 213.565,337.712 189.5,342.5C 192.97,330.757 196.637,319.09 200.5,307.5C 211.696,271.91 222.696,236.243 233.5,200.5C 248.691,150.094 264.191,99.7603 280,49.5C 297.709,12.8905 326.876,-2.94286 367.5,2C 381.799,2.95587 387.966,10.4559 386,24.5C 378.124,50.6251 369.958,76.6251 361.5,102.5 Z"/></g>
<g><path style="opacity:0.996" fill="#7a849a" d="M 361.5,102.5 C 354.629,125.114 347.962,147.78 341.5,170.5C 340.21,171.058 339.377,172.058 339,173.5C 328.184,208.111 317.684,242.777 307.5,277.5C 303.092,291.724 299.092,306.057 295.5,320.5C 284.521,322.941 273.521,325.274 262.5,327.5C 262.167,327.5 261.833,327.5 261.5,327.5C 259.504,303.358 260.504,279.358 264.5,255.5C 282.19,255.451 288.023,247.118 282,230.5C 279.643,227.909 276.809,226.242 273.5,225.5C 273.5,225.167 273.5,224.833 273.5,224.5C 292.08,175.979 321.413,135.312 361.5,102.5 Z"/></g>
<g><path style="opacity:0.995" fill="#5d6a85" d="M 511.5,148.5 C 511.5,157.167 511.5,165.833 511.5,174.5C 504.308,206.018 485.308,226.851 454.5,237C 405.526,250.66 356.526,264.16 307.5,277.5C 317.684,242.777 328.184,208.111 339,173.5C 339.377,172.058 340.21,171.058 341.5,170.5C 390.526,157.16 439.526,143.66 488.5,130C 502.558,128.225 510.225,134.392 511.5,148.5 Z"/></g>
<g><path style="opacity:0.986" fill="#00dcc4" d="M 190.5,211.5 C 179.568,246.966 169.235,282.632 159.5,318.5C 144.185,322.662 128.852,326.829 113.5,331C 63.8697,338.771 28.0364,320.271 6,275.5C 3.28483,268.201 1.11816,260.868 -0.5,253.5C -0.5,244.167 -0.5,234.833 -0.5,225.5C 8.77543,181.725 35.4421,155.559 79.5,147C 127.244,143.462 161.077,163.296 181,206.5C 183.83,208.831 186.997,210.498 190.5,211.5 Z M 87.5,193.5 C 114.7,193.211 131.533,206.211 138,232.5C 139.832,260.323 127.332,277.823 100.5,285C 71.3335,287.165 53.5002,273.999 47,245.5C 46.3796,217.041 59.8796,199.707 87.5,193.5 Z"/></g>
<g><path style="opacity:1" fill="#475066" d="M 233.5,200.5 C 222.696,236.243 211.696,271.91 200.5,307.5C 186.762,310.969 173.095,314.636 159.5,318.5C 169.235,282.632 179.568,246.966 190.5,211.5C 204.945,208.305 219.279,204.639 233.5,200.5 Z"/></g>
<g><path style="opacity:1" fill="#edde2f" d="M 273.5,224.5 C 273.5,224.833 273.5,225.167 273.5,225.5C 270.362,235.255 267.362,244.921 264.5,254.5C 258.745,252.572 255.245,248.572 254,242.5C 254.221,229.781 260.721,223.781 273.5,224.5 Z"/></g>
<g><path style="opacity:1" fill="#f6e869" d="M 273.5,225.5 C 276.809,226.242 279.643,227.909 282,230.5C 288.023,247.118 282.19,255.451 264.5,255.5C 264.5,255.167 264.5,254.833 264.5,254.5C 267.362,244.921 270.362,235.255 273.5,225.5 Z"/></g>
<g><path style="opacity:0.988" fill="#afefe6" d="M 295.5,320.5 C 296.929,324.502 299.262,328.002 302.5,331C 340.548,349.905 359.048,380.738 358,423.5C 355.971,448.891 345.471,469.891 326.5,486.5C 317.799,472.811 309.133,459.144 300.5,445.5C 315.708,422.143 313.375,400.643 293.5,381C 286.006,375.246 277.672,371.746 268.5,370.5C 269.139,369.903 269.472,369.07 269.5,368C 265.94,354.702 263.607,341.202 262.5,327.5C 273.521,325.274 284.521,322.941 295.5,320.5 Z"/></g>
<g><path style="opacity:1" fill="#76e7d6" d="M 261.5,327.5 C 261.833,327.5 262.167,327.5 262.5,327.5C 263.607,341.202 265.94,354.702 269.5,368C 269.472,369.07 269.139,369.903 268.5,370.5C 235.73,372.435 219.23,389.769 219,422.5C 225.591,451.398 243.758,464.564 273.5,462C 284.496,459.514 293.496,454.014 300.5,445.5C 309.133,459.144 317.799,472.811 326.5,486.5C 306.416,504.583 282.749,512.417 255.5,510C 211.965,503.463 184.465,478.963 173,436.5C 170.003,420.756 170.67,405.089 175,389.5C 179.739,373.785 184.572,358.119 189.5,342.5C 213.565,337.712 237.565,332.712 261.5,327.5 Z"/></g>
</svg>
